HIERARCHY
ROOT Hips
{
	OFFSET -0.001795 -0.223333 0.028219
	CHANNELS 6 Xposition Yposition Zposition Zrotation Yrotation Xrotation 
	JOINT LeftUpLeg
	{
		OFFSET 0.069520 -0.091406 -0.006815
		CHANNELS 3 Zrotation Yrotation Xrotation
		JOINT LeftLeg
		{
			OFFSET 0.034277 -0.375199 -0.004496
			CHANNELS 3 Zrotation Yrotation Xrotation
			JOINT LeftFoot
			{
				OFFSET -0.013596 -0.397961 -0.043693
				CHANNELS 3 Zrotation Yrotation Xrotation
				JOINT LeftToe
				{
					OFFSET 0.026358 -0.055791 0.119288
					CHANNELS 3 Zrotation Yrotation Xrotation
					End Site
					{
						OFFSET 0.000000 0.000000 0.000000
					}
				}
			}
		}
	}
	JOINT RightUpLeg
	{
		OFFSET -0.067670 -0.090522 -0.004320
		CHANNELS 3 Zrotation Yrotation Xrotation
		JOINT RightLeg
		{
			OFFSET -0.038290 -0.382569 -0.008850
			CHANNELS 3 Zrotation Yrotation Xrotation
			JOINT RightFoot
			{
				OFFSET 0.015774 -0.398415 -0.042312
				CHANNELS 3 Zrotation Yrotation Xrotation
				JOINT RightToe
				{
					OFFSET -0.025372 -0.048144 0.123348
					CHANNELS 3 Zrotation Yrotation Xrotation
					End Site
					{
						OFFSET 0.000000 0.000000 0.000000
					}
				}
			}
		}
	}
	JOINT Spine
	{
		OFFSET -0.002533 0.108963 -0.026696
		CHANNELS 3 Zrotation Yrotation Xrotation
		JOINT Spine1
		{
			OFFSET 0.005487 0.135180 0.001092
			CHANNELS 3 Zrotation Yrotation Xrotation
			JOINT Spine2
			{
				OFFSET 0.001457 0.052922 0.025425
				CHANNELS 3 Zrotation Yrotation Xrotation
				JOINT Neck
				{
					OFFSET -0.002778 0.213870 -0.042857
					CHANNELS 3 Zrotation Yrotation Xrotation
					JOINT Head
					{
						OFFSET 0.005152 0.064970 0.051349
						CHANNELS 3 Zrotation Yrotation Xrotation
						End Site
						{
							OFFSET 0.000000 0.000000 0.000000
						}
					}
				}
				JOINT LeftShoulder
				{
					OFFSET 0.078845 0.121749 -0.034090
					CHANNELS 3 Zrotation Yrotation Xrotation
					JOINT LeftArm
					{
						OFFSET 0.090977 0.030469 -0.008868
						CHANNELS 3 Zrotation Yrotation Xrotation
						JOINT LeftForeArm
						{
							OFFSET 0.259612 -0.012772 -0.027456
							CHANNELS 3 Zrotation Yrotation Xrotation
							JOINT LeftHand
							{
								OFFSET 0.249234 0.008986 -0.001171
								CHANNELS 3 Zrotation Yrotation Xrotation
								End Site
								{
									OFFSET 0.000000 0.000000 0.000000
								}
							}
						}
					}
				}
				JOINT RightShoulder
				{
					OFFSET -0.081759 0.118833 -0.038615
					CHANNELS 3 Zrotation Yrotation Xrotation
					JOINT RightArm
					{
						OFFSET -0.096012 0.032551 -0.009143
						CHANNELS 3 Zrotation Yrotation Xrotation
						JOINT RightForeArm
						{
							OFFSET -0.253742 -0.013329 -0.021401
							CHANNELS 3 Zrotation Yrotation Xrotation
							JOINT RightHand
							{
								OFFSET -0.255298 0.007772 -0.005559
								CHANNELS 3 Zrotation Yrotation Xrotation
								End Site
								{
									OFFSET 0.000000 0.000000 0.000000
								}
							}
						}
					}
				}
			}
		}
	}
}
MOTION
Frames: 11
Frame Time: 0.050000
0.000000 0.910754 0.000000 0.202694 1.025530 -10.621776 -3.359943 -2.281801 -17.980252 -3.031751 -0.054598 31.788638 5.038803 11.320085 4.155216 0.000000 0.000000 0.000000 -4.710242 0.498533 -8.857495 0.858542 2.223227 64.780041 2.353674 5.235644 1.241844 0.000000 0.000000 0.000000 -6.537237 0.109846 17.130332 6.846640 -1.654105 -18.445787 1.557211 1.551453 30.715076 3.877958 -1.042552 -20.235233 0.000000 0.000000 0.000000 -17.536825 8.727455 -5.794691 -59.246335 14.374517 -16.882595 -9.288426 -26.198630 3.679741 0.000000 0.000000 0.000000 9.453603 -0.999137 -0.573004 62.856518 -8.035984 -13.245863 7.607423 29.300551 3.597120 0.000000 0.000000 0.000000 
-0.015233 0.897745 -0.062791 -0.222406 1.436399 -10.068709 -0.338865 -2.227385 -22.290042 -4.853058 0.615913 31.200888 5.160547 11.084071 1.971252 0.000000 0.000000 0.000000 -3.666472 0.384218 -5.911636 -0.392974 3.353329 70.954366 6.088343 5.014400 15.482945 0.000000 0.000000 0.000000 -6.929418 0.110403 14.954647 7.880211 -2.130416 -16.745975 3.147686 2.669134 29.550804 3.104250 -0.084286 -21.764315 0.000000 0.000000 0.000000 -16.541843 9.441153 -6.327473 -58.238015 18.192132 -18.223099 -13.448337 -23.000454 3.918896 0.000000 0.000000 0.000000 8.077052 -2.039221 -0.901309 63.730660 -11.285475 -14.686497 12.226123 32.435215 5.431614 0.000000 0.000000 0.000000 
-0.030738 0.890220 -0.130691 1.198476 2.417645 -10.408818 -1.228828 -2.383031 -21.705460 -4.575374 0.474782 24.308754 6.669219 13.829876 1.319729 0.000000 0.000000 0.000000 -3.962306 -0.285647 3.813037 -0.820789 2.818490 61.062039 4.195099 5.639652 7.694407 0.000000 0.000000 0.000000 -4.814655 -0.126068 13.308067 5.801831 -1.577721 -14.805401 1.554910 1.469053 29.202788 1.491753 0.929503 -23.035212 0.000000 0.000000 0.000000 -17.441733 10.005035 -6.677456 -56.002419 19.981604 -18.214642 -11.449055 -24.389914 3.753738 0.000000 0.000000 0.000000 7.743227 -0.230611 -0.166007 63.735701 -9.943873 -14.085974 10.159366 31.747150 4.650373 0.000000 0.000000 0.000000 
-0.048194 0.888577 -0.205701 1.833669 2.047322 -10.603676 -1.181062 -2.524086 -23.084296 -3.684119 0.321385 14.828733 5.243747 12.888573 10.639982 0.000000 0.000000 0.000000 -1.963700 -0.666571 7.736621 -3.136739 4.062198 53.325764 2.611132 3.638862 5.022657 0.000000 0.000000 0.000000 -4.497802 -0.153081 15.117157 7.084526 -1.866700 -16.738800 0.460190 3.527329 29.550186 0.715469 1.632730 -21.352382 0.000000 0.000000 0.000000 -18.743962 12.991645 -8.985317 -54.588572 22.206662 -18.690488 -12.287221 -25.952002 4.109666 0.000000 0.000000 0.000000 9.023449 -1.333406 -0.479121 60.348568 -10.374374 -13.565406 13.470937 30.862148 5.509123 0.000000 0.000000 0.000000 
-0.066656 0.889917 -0.284896 2.387067 1.853320 -9.238978 -0.012116 -2.480772 -25.201449 -4.646548 0.546532 7.761593 4.527174 12.229905 13.311185 0.000000 0.000000 0.000000 0.330221 -0.758038 7.277683 -3.713349 3.790873 45.586574 -0.980164 -0.313868 -4.416675 0.000000 0.000000 0.000000 -2.776042 -0.327436 15.774212 6.021138 -1.455088 -17.346391 0.153691 5.285194 29.249044 2.879105 0.540680 -21.715460 0.000000 0.000000 0.000000 -17.412949 12.000220 -8.485990 -56.217768 20.360912 -18.529942 -12.383410 -25.597973 3.954226 0.000000 0.000000 0.000000 8.011876 -4.105085 -1.555970 61.992245 -10.021813 -13.388903 13.674027 29.629415 5.463824 0.000000 0.000000 0.000000 
-0.083700 0.898030 -0.359860 1.951507 3.970634 -9.011784 0.193033 -2.580107 -25.513786 -4.584401 0.484952 10.877835 5.343521 12.749486 7.879503 0.000000 0.000000 0.000000 2.707009 -0.393845 3.160865 -2.649019 2.565096 43.896625 -2.138881 -2.808447 -6.611242 0.000000 0.000000 0.000000 -1.021117 -0.699383 18.587610 5.446891 -1.027086 -19.816155 -0.939965 2.195981 29.973445 3.458713 -0.291783 -20.864004 0.000000 0.000000 0.000000 -17.499842 13.221200 -8.788002 -56.824490 18.812314 -18.095446 -12.683840 -24.610625 4.007250 0.000000 0.000000 0.000000 6.953770 -4.461186 -1.803581 62.722008 -9.723736 -13.586645 14.882455 24.652886 4.546993 0.000000 0.000000 0.000000 
-0.099165 0.911981 -0.428097 1.378944 6.098923 -10.213339 1.032818 -2.424381 -24.829647 -6.561306 0.829914 22.106191 7.135689 15.004682 2.809263 0.000000 0.000000 0.000000 3.308650 0.057971 -0.247066 -1.216816 1.284544 43.406111 -2.340891 -3.533756 -6.857433 0.000000 0.000000 0.000000 -1.034171 -0.883867 20.714526 5.513083 -0.965154 -20.420083 -0.440989 0.678813 30.441988 2.349646 0.333780 -20.454644 0.000000 0.000000 0.000000 -18.064657 11.604457 -7.952615 -57.493559 16.865642 -17.553257 -12.173370 -24.933144 3.993610 0.000000 0.000000 0.000000 6.649581 -4.950074 -1.997049 62.631116 -11.553352 -14.621992 14.651020 21.908105 3.906421 0.000000 0.000000 0.000000 
-0.112834 0.928480 -0.492171 1.384687 7.267997 -9.678888 1.629452 -2.197007 -23.516418 -10.536533 2.175974 36.020762 8.762981 17.727799 0.511137 0.000000 0.000000 0.000000 3.103373 0.536913 -4.003666 -1.477479 1.148041 41.885146 -1.795779 -3.457326 -3.285404 0.000000 0.000000 0.000000 -1.633143 -0.857997 21.061334 5.762849 -0.976036 -20.905719 -1.101353 -0.107800 30.619745 1.957616 0.502036 -19.803318 0.000000 0.000000 0.000000 -18.736394 11.916184 -8.267562 -56.622901 13.418787 -15.701672 -13.343672 -24.002633 4.089657 0.000000 0.000000 0.000000 6.547537 -5.784617 -2.358198 61.989471 -15.250742 -16.320576 19.266224 20.062106 4.346520 0.000000 0.000000 0.000000 
-0.124015 0.940631 -0.554256 1.152169 9.183910 -9.167406 2.218948 -1.835486 -20.650091 -13.112244 3.171966 48.699173 7.731550 16.049738 1.874457 0.000000 0.000000 0.000000 3.202371 1.054912 -8.194919 -1.604598 0.815145 40.451413 -1.412417 -3.554350 -0.202559 0.000000 0.000000 0.000000 -1.505761 -0.972587 21.265690 5.271752 -0.698843 -22.173639 -1.661768 -2.077485 30.956624 1.811104 0.491407 -20.486109 0.000000 0.000000 0.000000 -18.323415 13.191112 -8.706105 -56.619231 12.265435 -15.166395 -14.482313 -26.431294 4.874312 0.000000 0.000000 0.000000 4.414919 -6.859663 -2.728440 64.119850 -17.966043 -18.259942 21.983119 17.644546 4.191092 0.000000 0.000000 0.000000 
-0.132401 0.945956 -0.615683 0.866198 9.911731 -8.638045 2.532049 -1.024076 -12.913809 -13.597391 3.245330 55.908455 4.921103 10.917637 2.653386 0.000000 0.000000 0.000000 3.294975 1.572391 -12.739240 -1.804089 0.778693 39.615121 -0.542230 -2.582441 3.453215 0.000000 0.000000 0.000000 -0.093657 -1.143852 20.066192 4.790174 -0.517588 -22.440197 -3.060192 -3.208825 31.775919 1.017020 0.950347 -21.026261 0.000000 0.000000 0.000000 -19.991477 12.858468 -8.810454 -54.599948 9.433025 -13.391493 -14.518801 -27.412293 5.110976 0.000000 0.000000 0.000000 3.564081 -7.767872 -3.057949 65.134246 -20.716030 -20.103746 24.602755 16.925562 4.437869 0.000000 0.000000 0.000000 
-0.139351 0.944731 -0.677602 0.468095 8.916161 -7.712932 1.427820 -0.349841 -4.289688 -12.113735 2.630011 56.472028 2.580755 6.275989 2.320807 0.000000 0.000000 0.000000 3.411509 2.127884 -17.775151 -1.414735 0.798463 38.358148 -0.324851 -2.388110 4.321593 0.000000 0.000000 0.000000 0.705063 -1.055740 17.744469 4.794348 -0.578437 -21.608767 -4.256336 -3.640779 31.979518 0.511055 1.183465 -21.793493 0.000000 0.000000 0.000000 -20.344255 13.287438 -8.935207 -53.940046 8.035677 -12.612444 -15.513703 -29.247643 5.827178 0.000000 0.000000 0.000000 3.009688 -7.934630 -3.112413 67.133346 -21.443098 -21.302069 23.980431 15.705154 3.966705 0.000000 0.000000 0.000000 
